<svg width="24" height="24" viewBox="0 0 24 24" fill="none" xmlns="http://www.w3.org/2000/svg">
<rect width="24" height="24" rx="12" fill="#FFBE7C"/>
<path fill-rule="evenodd" clip-rule="evenodd" d="M12.0007 5.33325C8.31875 5.33325 5.33398 8.31802 5.33398 11.9999C5.33398 15.6818 8.31875 18.6666 12.0007 18.6666C15.6825 18.6666 18.6673 15.6818 18.6673 11.9999C18.6673 8.31802 15.6825 5.33325 12.0007 5.33325ZM9.33399 13.3333C9.08812 13.3333 8.86221 13.4686 8.7462 13.6853C8.63019 13.9021 8.6429 14.1651 8.77928 14.3697C10.3117 16.6684 13.6896 16.6684 15.222 14.3697C15.3584 14.1651 15.3711 13.9021 15.2551 13.6853C15.1391 13.4686 14.9132 13.3333 14.6673 13.3333H9.33399ZM9.66732 11.3333C10.2196 11.3333 10.6673 10.8855 10.6673 10.3333C10.6673 9.78097 10.2196 9.33325 9.66732 9.33325C9.11503 9.33325 8.66732 9.78097 8.66732 10.3333C8.66732 10.8855 9.11503 11.3333 9.66732 11.3333ZM15.334 10.3333C15.334 10.8855 14.8863 11.3333 14.334 11.3333C13.7817 11.3333 13.334 10.8855 13.334 10.3333C13.334 9.78097 13.7817 9.33325 14.334 9.33325C14.8863 9.33325 15.334 9.78097 15.334 10.3333Z" fill="white"/>
</svg>
