<svg width="24" height="24" viewBox="0 0 24 24" fill="none" xmlns="http://www.w3.org/2000/svg">
<rect width="24" height="24" rx="12" fill="#F4B0F1"/>
<path fill-rule="evenodd" clip-rule="evenodd" d="M6.00065 5.33325C5.63246 5.33325 5.33398 5.63173 5.33398 5.99992C5.33398 7.09046 5.85769 8.05869 6.66732 8.66683V15.3333C6.66732 17.1742 8.1597 18.6666 10.0007 18.6666H14.0007C15.8416 18.6666 17.334 17.1742 17.334 15.3333V8.66683C18.1436 8.05869 18.6673 7.09046 18.6673 5.99992C18.6673 5.63173 18.3688 5.33325 18.0007 5.33325H6.00065ZM15.334 7.99992C16.2048 7.99992 16.9456 7.44338 17.2202 6.66659H6.78112C7.05568 7.44338 7.79651 7.99992 8.66732 7.99992H15.334ZM12.0007 10.6666C12.3688 10.6666 12.6673 10.9651 12.6673 11.3333V13.7238L12.8626 13.5285C13.1229 13.2682 13.545 13.2682 13.8054 13.5285C14.0657 13.7889 14.0657 14.211 13.8054 14.4713L12.4721 15.8047C12.2117 16.065 11.7896 16.065 11.5292 15.8047L10.1959 14.4713C9.93556 14.211 9.93556 13.7889 10.1959 13.5285C10.4563 13.2682 10.8784 13.2682 11.1387 13.5285L11.334 13.7238V11.3333C11.334 10.9651 11.6325 10.6666 12.0007 10.6666Z" fill="white"/>
</svg>
