<svg width="24" height="24" viewBox="0 0 24 24" fill="none" xmlns="http://www.w3.org/2000/svg">
<rect width="24" height="24" rx="12" fill="#FF9D97"/>
<path d="M17.3327 17.9999C17.3327 18.2458 17.1974 18.4717 16.9806 18.5877C16.7638 18.7037 16.5008 18.691 16.2962 18.5546C14.8613 17.598 13.9993 15.9875 13.9993 14.2629V12.6666C13.9993 12.2984 14.2978 11.9999 14.666 11.9999H15.9993V5.99992C15.9993 5.63173 16.2978 5.33325 16.666 5.33325C17.0342 5.33325 17.3327 5.63173 17.3327 5.99992V17.9999Z" fill="white"/>
<path d="M7.99935 5.99992C7.99935 5.63173 7.70087 5.33325 7.33268 5.33325C6.96449 5.33325 6.66602 5.63173 6.66602 5.99992V8.66659C6.66602 10.2792 7.81119 11.6244 9.33268 11.9332V17.9999C9.33268 18.3681 9.63116 18.6666 9.99935 18.6666C10.3675 18.6666 10.666 18.3681 10.666 17.9999V11.9332C12.1875 11.6244 13.3327 10.2792 13.3327 8.66659V5.99992C13.3327 5.63173 13.0342 5.33325 12.666 5.33325C12.2978 5.33325 11.9993 5.63173 11.9993 5.99992V8.66659C11.9993 8.90034 11.9592 9.12473 11.8855 9.33325H10.666V5.99992C10.666 5.63173 10.3675 5.33325 9.99935 5.33325C9.63116 5.33325 9.33268 5.63173 9.33268 5.99992V9.33325H8.11315C8.03945 9.12473 7.99935 8.90034 7.99935 8.66659V5.99992Z" fill="white"/>
</svg>
