<svg width="24" height="24" viewBox="0 0 24 24" fill="none" xmlns="http://www.w3.org/2000/svg">
<rect width="24" height="24" rx="12" fill="#85BADA"/>
<path fill-rule="evenodd" clip-rule="evenodd" d="M12.9721 6.44358C12.368 6.108 11.6335 6.108 11.0295 6.44358L5.67701 9.41718C5.35515 9.59599 5.23919 10.0019 5.418 10.3237C5.59681 10.6456 6.00268 10.7615 6.32453 10.5827L6.66732 10.3923V14.6667C6.66732 16.5077 8.1597 18 10.0007 18H14.0007C15.8416 18 17.334 16.5076 17.334 14.6667V10.3922L17.677 10.5827C17.9989 10.7615 18.4047 10.6456 18.5835 10.3237C18.7624 10.0019 18.6464 9.59599 18.3245 9.41718L12.9721 6.44358ZM10.0007 16V15.3333C10.0007 14.2288 10.8961 13.3333 12.0007 13.3333C13.1052 13.3333 14.0007 14.2288 14.0007 15.3333V16C14.0007 16.3682 13.7022 16.6667 13.334 16.6667H10.6673C10.2991 16.6667 10.0007 16.3682 10.0007 16Z" fill="white"/>
</svg>
