<svg width="24" height="24" viewBox="0 0 24 24" fill="none" xmlns="http://www.w3.org/2000/svg">
<rect width="24" height="24" rx="12" fill="#BCE36A"/>
<path d="M13.9993 5.33325C13.6312 5.33325 13.3327 5.63173 13.3327 5.99992C13.3327 6.36811 13.6312 6.66659 13.9993 6.66659H15.0566L11.9994 9.72378L9.80416 7.52851C9.57945 7.3038 9.22737 7.26894 8.96295 7.44522L6.96295 8.77855C6.6566 8.98279 6.57382 9.3967 6.77805 9.70305C6.98229 10.0094 7.3962 10.0922 7.70255 9.88795L9.24781 8.85778L11.528 11.138C11.7884 11.3983 12.2105 11.3983 12.4708 11.138L15.9993 7.60946V8.66658C15.9993 9.03477 16.2978 9.33325 16.666 9.33325C17.0342 9.33325 17.3327 9.03477 17.3327 8.66658V5.99992C17.3327 5.63173 17.0342 5.33325 16.666 5.33325H13.9993Z" fill="white"/>
<path d="M15.9993 11.9999C15.263 11.9999 14.666 12.5969 14.666 13.3333V17.3333C14.666 18.0696 15.263 18.6666 15.9993 18.6666C16.7357 18.6666 17.3327 18.0696 17.3327 17.3333V13.3333C17.3327 12.5969 16.7357 11.9999 15.9993 11.9999Z" fill="white"/>
<path d="M11.9993 13.3333C11.263 13.3333 10.666 13.9302 10.666 14.6666V17.3333C10.666 18.0696 11.263 18.6666 11.9993 18.6666C12.7357 18.6666 13.3327 18.0696 13.3327 17.3333V14.6666C13.3327 13.9302 12.7357 13.3333 11.9993 13.3333Z" fill="white"/>
<path d="M6.66602 13.9999C6.66602 13.2635 7.26297 12.6666 7.99935 12.6666C8.73573 12.6666 9.33268 13.2635 9.33268 13.9999V17.3333C9.33268 18.0696 8.73573 18.6666 7.99935 18.6666C7.26297 18.6666 6.66602 18.0696 6.66602 17.3333V13.9999Z" fill="white"/>
</svg>
