<svg width="24" height="24" viewBox="0 0 24 24" fill="none" xmlns="http://www.w3.org/2000/svg">
<rect width="24" height="24" rx="12" fill="#9CB2FF"/>
<path fill-rule="evenodd" clip-rule="evenodd" d="M15.666 5.99992C15.666 5.63173 15.3675 5.33325 14.9993 5.33325C14.6312 5.33325 14.3327 5.63173 14.3327 5.99992V9.42988C13.3689 9.71673 12.666 10.6096 12.666 11.6666V14.9999C12.666 16.0569 13.3689 16.9498 14.3327 17.2366V17.9999C14.3327 18.3681 14.6312 18.6666 14.9993 18.6666C15.3675 18.6666 15.666 18.3681 15.666 17.9999V17.2366C16.6298 16.9498 17.3327 16.0569 17.3327 14.9999V11.6666C17.3327 10.6096 16.6298 9.71673 15.666 9.42988V5.99992Z" fill="white"/>
<path fill-rule="evenodd" clip-rule="evenodd" d="M9.66602 5.99992V6.76321C10.6298 7.05006 11.3327 7.94291 11.3327 8.99992V12.3333C11.3327 13.3903 10.6298 14.2831 9.66602 14.57L9.66602 17.9999C9.66602 18.3681 9.36754 18.6666 8.99935 18.6666C8.63116 18.6666 8.33268 18.3681 8.33268 17.9999L8.33268 14.57C7.36885 14.2831 6.66602 13.3903 6.66602 12.3333V8.99992C6.66602 7.94291 7.36885 7.05006 8.33268 6.76321V5.99992C8.33268 5.63173 8.63116 5.33325 8.99935 5.33325C9.36754 5.33325 9.66602 5.63173 9.66602 5.99992Z" fill="white"/>
</svg>
