<svg width="24" height="24" viewBox="0 0 24 24" fill="none" xmlns="http://www.w3.org/2000/svg">
<rect width="24" height="24" rx="12" fill="#505558"/>
<path fill-rule="evenodd" clip-rule="evenodd" d="M10.8044 6.18097C11.0134 5.81605 11.3705 5.33325 11.9998 5.33325C12.6291 5.33325 12.9862 5.81605 13.1951 6.18097C13.4141 6.56331 13.6335 7.11121 13.8904 7.75272L13.9353 7.86507C14.095 8.26362 14.1968 8.51578 14.2939 8.7008C14.3839 8.87227 14.4441 8.93396 14.4933 8.9706C14.5425 9.0072 14.6186 9.0471 14.8082 9.08397C15.0129 9.12378 15.2832 9.14884 15.7102 9.18715L15.9117 9.20522C16.544 9.26189 17.0909 9.31092 17.4944 9.40627C17.8909 9.49999 18.4167 9.69814 18.6073 10.2657C18.7977 10.8329 18.4987 11.3084 18.2395 11.6228C17.9757 11.9429 17.5695 12.3129 17.0998 12.7408L16.7259 13.0816C16.4631 13.3211 16.2974 13.4728 16.1795 13.6006C16.0699 13.7194 16.0345 13.7834 16.016 13.8306C16.0045 13.8602 15.9949 13.8905 15.9873 13.9213C15.9752 13.9706 15.9673 14.0435 15.9885 14.204C16.0114 14.3766 16.0595 14.5962 16.1364 14.9436L16.1914 15.1919C16.321 15.7768 16.43 16.2688 16.4726 16.6466C16.511 16.9876 16.5342 17.4904 16.1999 17.8632C16.0251 18.0582 15.7977 18.1987 15.5449 18.2678C15.0612 18.4 14.6221 18.1529 14.3351 17.9655C14.0171 17.7577 13.627 17.4394 13.1634 17.061L13.1324 17.0357C12.8008 16.765 12.5875 16.5919 12.4127 16.4748C12.2478 16.3643 12.167 16.339 12.1139 16.3305C12.0383 16.3185 11.9613 16.3185 11.8857 16.3305C11.8326 16.339 11.7518 16.3643 11.5868 16.4748C11.412 16.5919 11.1988 16.765 10.8672 17.0357L10.8362 17.061C10.3726 17.4394 9.9825 17.7578 9.66444 17.9655C9.37746 18.1529 8.93832 18.4 8.45463 18.2678C8.20187 18.1987 7.97448 18.0582 7.79962 17.8632C7.46536 17.4904 7.48858 16.9876 7.527 16.6466C7.56957 16.2688 7.67856 15.7768 7.80815 15.1919L7.86316 14.9436C7.9401 14.5962 7.98818 14.3766 8.01103 14.204C8.03228 14.0435 8.02437 13.9706 8.01225 13.9213C8.00466 13.8905 7.99506 13.8602 7.98351 13.8306C7.9651 13.7834 7.9297 13.7194 7.82007 13.6006C7.70212 13.4728 7.53648 13.3211 7.27369 13.0816L6.89975 12.7409C6.43006 12.3129 6.0239 11.9429 5.76009 11.6228C5.50088 11.3084 5.20185 10.8329 5.39229 10.2657C5.58288 9.69814 6.10869 9.49999 6.5052 9.40627C6.90861 9.31092 7.45558 9.26189 8.0879 9.20522C8.10514 9.20367 8.12244 9.20212 8.1398 9.20056L8.28932 9.18715C8.71639 9.14884 8.98667 9.12378 9.19137 9.08397C9.38096 9.0471 9.45709 9.0072 9.50623 8.9706C9.55544 8.93396 9.61566 8.87227 9.70564 8.7008C9.80274 8.51578 9.9046 8.26362 10.0642 7.86507L10.0897 7.80145C10.0962 7.78515 10.1027 7.7689 10.1092 7.75272C10.3661 7.11121 10.5855 6.56331 10.8044 6.18097Z" fill="white"/>
</svg>
