<svg width="24" height="24" viewBox="0 0 24 24" fill="none" xmlns="http://www.w3.org/2000/svg">
<rect width="24" height="24" rx="12" fill="#8B82C4"/>
<path fill-rule="evenodd" clip-rule="evenodd" d="M16.6436 14.3994C17.8335 13.8905 18.6673 12.7092 18.6673 11.3332V9.99984C18.6673 8.15889 17.1749 6.6665 15.334 6.6665H11.334C9.70167 6.6665 8.3434 7.83978 8.05649 9.38901C6.50726 9.67592 5.33398 11.0342 5.33398 12.6665V13.9998C5.33398 15.8408 6.82637 17.3332 8.66732 17.3332L13.334 17.3332C15.0397 17.3332 16.4462 16.052 16.6436 14.3994ZM8.00065 10.7803C7.22386 11.0549 6.66732 11.7957 6.66732 12.6665L6.66732 13.9998C6.66732 15.1044 7.56275 15.9998 8.66732 15.9998L13.334 15.9998C14.2048 15.9998 14.9456 15.4433 15.2202 14.6665L11.334 14.6665C9.49303 14.6665 8.00065 13.1741 8.00065 11.3332V10.7803ZM14.6673 10.6665C14.6673 11.4029 14.0704 11.9998 13.334 11.9998C12.5976 11.9998 12.0006 11.4029 12.0006 10.6665C12.0006 9.93012 12.5976 9.33317 13.334 9.33317C14.0704 9.33317 14.6673 9.93012 14.6673 10.6665Z" fill="white"/>
</svg>
