<svg width="24" height="24" viewBox="0 0 24 24" fill="none" xmlns="http://www.w3.org/2000/svg">
<rect width="24" height="24" rx="12" fill="#B89AE4"/>
<path fill-rule="evenodd" clip-rule="evenodd" d="M6.66667 6C6.29848 6 6 6.29848 6 6.66667C6 7.03486 6.29848 7.33333 6.66667 7.33333H7.33333C7.6671 7.33333 7.94358 7.57861 7.99236 7.89875L8.1783 10.8745C8.28807 12.6313 9.74491 14 11.5051 14H14.6667C16.5076 14 18 12.5076 18 10.6667C18 8.82572 16.5076 7.33333 14.6667 7.33333H9.21953C8.94497 6.55654 8.20415 6 7.33333 6H6.66667Z" fill="white"/>
<path d="M12 16.6667C12 17.403 11.403 18 10.6667 18C9.93029 18 9.33333 17.403 9.33333 16.6667C9.33333 15.9303 9.93029 15.3333 10.6667 15.3333C11.403 15.3333 12 15.9303 12 16.6667Z" fill="white"/>
<path d="M14.6667 18C15.403 18 16 17.403 16 16.6667C16 15.9303 15.403 15.3333 14.6667 15.3333C13.9303 15.3333 13.3333 15.9303 13.3333 16.6667C13.3333 17.403 13.9303 18 14.6667 18Z" fill="white"/>
</svg>
