<svg width="24" height="24" viewBox="0 0 24 24" fill="none" xmlns="http://www.w3.org/2000/svg">
<rect width="24" height="24" rx="12" fill="#B39D92"/>
<path fill-rule="evenodd" clip-rule="evenodd" d="M10.199 5.33325C9.01341 5.33325 7.91708 5.96296 7.31971 6.98702L5.78805 9.61271C5.49068 10.1225 5.33398 10.7021 5.33398 11.2923V13.9999C5.33398 15.0905 5.85769 16.0587 6.66732 16.6668V17.3333C6.66732 18.0696 7.26427 18.6666 8.00065 18.6666C8.73703 18.6666 9.33398 18.0696 9.33398 17.3333H14.6673C14.6673 18.0696 15.2643 18.6666 16.0007 18.6666C16.737 18.6666 17.334 18.0696 17.334 17.3333V16.6668C18.1436 16.0587 18.6673 15.0905 18.6673 13.9999V11.2923C18.6673 10.7021 18.5106 10.1225 18.2132 9.61271L16.6816 6.98702C16.0842 5.96296 14.9879 5.33325 13.8023 5.33325H10.199ZM16.5066 9.33325H7.49468L8.47141 7.65884C8.82983 7.04441 9.48764 6.66659 10.199 6.66659H13.8023C14.5137 6.66659 15.1715 7.04441 15.5299 7.65884L16.5066 9.33325ZM9.00065 13.9999C9.55294 13.9999 10.0007 13.5522 10.0007 12.9999C10.0007 12.4476 9.55294 11.9999 9.00065 11.9999C8.44837 11.9999 8.00065 12.4476 8.00065 12.9999C8.00065 13.5522 8.44837 13.9999 9.00065 13.9999ZM15.0007 13.9999C15.5529 13.9999 16.0007 13.5522 16.0007 12.9999C16.0007 12.4476 15.5529 11.9999 15.0007 11.9999C14.4484 11.9999 14.0007 12.4476 14.0007 12.9999C14.0007 13.5522 14.4484 13.9999 15.0007 13.9999Z" fill="white"/>
</svg>
