<svg width="24" height="24" viewBox="0 0 24 24" fill="none" xmlns="http://www.w3.org/2000/svg">
<rect width="24" height="24" rx="12" fill="#82C4B8"/>
<path fill-rule="evenodd" clip-rule="evenodd" d="M6.66667 6C6.29848 6 6 6.29848 6 6.66667V12.0729C6 12.6398 6.24064 13.1802 6.66207 13.5594L11.8902 18.2647C12.7148 19.0069 13.9859 18.936 14.7229 18.1069L18.3297 14.0492C19.0332 13.2578 18.9979 12.0551 18.2491 11.3063L13.5286 6.58579C13.1535 6.21071 12.6448 6 12.1144 6H6.66667ZM10 11.3333C10.7364 11.3333 11.3333 10.7364 11.3333 10C11.3333 9.26362 10.7364 8.66667 10 8.66667C9.26362 8.66667 8.66667 9.26362 8.66667 10C8.66667 10.7364 9.26362 11.3333 10 11.3333Z" fill="white"/>
</svg>
