<svg width="24" height="24" viewBox="0 0 24 24" fill="none" xmlns="http://www.w3.org/2000/svg">
<path fill-rule="evenodd" clip-rule="evenodd" d="M6.29279 6.29259C6.48031 6.10512 6.73462 5.99981 6.99979 5.99981C7.26495 5.99981 7.51926 6.10512 7.70679 6.29259L11.9998 10.5856L16.2928 6.29259C16.385 6.19708 16.4954 6.1209 16.6174 6.06849C16.7394 6.01608 16.8706 5.9885 17.0034 5.98734C17.1362 5.98619 17.2678 6.01149 17.3907 6.06177C17.5136 6.11205 17.6253 6.18631 17.7192 6.2802C17.8131 6.37409 17.8873 6.48574 17.9376 6.60864C17.9879 6.73154 18.0132 6.86321 18.012 6.99599C18.0109 7.12877 17.9833 7.25999 17.9309 7.382C17.8785 7.504 17.8023 7.61435 17.7068 7.70659L13.4138 11.9996L17.7068 16.2926C17.8889 16.4812 17.9897 16.7338 17.9875 16.996C17.9852 17.2582 17.88 17.509 17.6946 17.6944C17.5092 17.8798 17.2584 17.985 16.9962 17.9873C16.734 17.9895 16.4814 17.8888 16.2928 17.7066L11.9998 13.4136L7.70679 17.7066C7.51818 17.8888 7.26558 17.9895 7.00339 17.9873C6.74119 17.985 6.49038 17.8798 6.30497 17.6944C6.11956 17.509 6.01439 17.2582 6.01211 16.996C6.00983 16.7338 6.11063 16.4812 6.29279 16.2926L10.5858 11.9996L6.29279 7.70659C6.10532 7.51907 6 7.26476 6 6.99959C6 6.73443 6.10532 6.48012 6.29279 6.29259Z" fill="currentColor"/>
</svg>
