<svg width="32" height="32" viewBox="0 0 32 32" fill="none" xmlns="http://www.w3.org/2000/svg">
<rect x="0.5" y="0.5" width="31" height="31" rx="15.5" stroke="#DDE2E4"/>
<path fill-rule="evenodd" clip-rule="evenodd" d="M10.2174 9C9.54528 9 9 9.55445 9 10.237V10.965C9 11.4706 9.19226 11.9568 9.53617 12.3225L13.3051 16.33L13.3067 16.3275C14.0343 17.0724 14.4437 18.0793 14.4437 19.1292V22.6851C14.4437 22.9228 14.6923 23.0744 14.8987 22.9624L17.045 21.7928C17.369 21.6158 17.5712 21.2721 17.5712 20.8988V19.12C17.5712 18.076 17.9748 17.0732 18.6958 16.33L22.4647 12.3225C22.8077 11.9568 23 11.4706 23 10.965V10.237C23 9.55445 22.4555 9 21.7835 9H10.2174Z" fill="#6E7C87" stroke="#6E7C87" stroke-width="1.55556" stroke-linecap="round" stroke-linejoin="round"/>
</svg>
