<svg width="25" height="24" viewBox="0 0 25 24" fill="none" xmlns="http://www.w3.org/2000/svg">
<path d="M15.5 8C15.5 8.79565 15.1839 9.55871 14.6213 10.1213C14.0587 10.6839 13.2956 11 12.5 11C11.7044 11 10.9413 10.6839 10.3787 10.1213C9.81607 9.55871 9.5 8.79565 9.5 8C9.5 7.20435 9.81607 6.44129 10.3787 5.87868C10.9413 5.31607 11.7044 5 12.5 5C13.2956 5 14.0587 5.31607 14.6213 5.87868C15.1839 6.44129 15.5 7.20435 15.5 8ZM20.5 10C20.5 10.5304 20.2893 11.0391 19.9142 11.4142C19.5391 11.7893 19.0304 12 18.5 12C17.9696 12 17.4609 11.7893 17.0858 11.4142C16.7107 11.0391 16.5 10.5304 16.5 10C16.5 9.46957 16.7107 8.96086 17.0858 8.58579C17.4609 8.21071 17.9696 8 18.5 8C19.0304 8 19.5391 8.21071 19.9142 8.58579C20.2893 8.96086 20.5 9.46957 20.5 10ZM16.5 17C16.5 15.9391 16.0786 14.9217 15.3284 14.1716C14.5783 13.4214 13.5609 13 12.5 13C11.4391 13 10.4217 13.4214 9.67157 14.1716C8.92143 14.9217 8.5 15.9391 8.5 17V20H16.5V17ZM8.5 10C8.5 10.5304 8.28929 11.0391 7.91421 11.4142C7.53914 11.7893 7.03043 12 6.5 12C5.96957 12 5.46086 11.7893 5.08579 11.4142C4.71071 11.0391 4.5 10.5304 4.5 10C4.5 9.46957 4.71071 8.96086 5.08579 8.58579C5.46086 8.21071 5.96957 8 6.5 8C7.03043 8 7.53914 8.21071 7.91421 8.58579C8.28929 8.96086 8.5 9.46957 8.5 10ZM18.5 20V17C18.5014 15.9833 18.2433 14.983 17.75 14.094C18.1933 13.9805 18.6568 13.9698 19.1049 14.0627C19.553 14.1556 19.974 14.3496 20.3357 14.6299C20.6974 14.9102 20.9903 15.2695 21.1921 15.6802C21.3939 16.091 21.4992 16.5424 21.5 17V20H18.5ZM7.25 14.094C6.75675 14.983 6.4986 15.9833 6.5 17V20H3.5V17C3.49981 16.542 3.60446 16.0901 3.80595 15.6789C4.00743 15.2676 4.30039 14.9079 4.66238 14.6274C5.02437 14.3469 5.44578 14.153 5.89431 14.0605C6.34284 13.9681 6.80658 13.9795 7.25 14.094Z" fill="currentColor"/>
</svg>
