<svg width="25" height="24" viewBox="0 0 25 24" fill="none" xmlns="http://www.w3.org/2000/svg">
<path fill-rule="evenodd" clip-rule="evenodd" d="M12.5 11C13.2956 11 14.0587 10.6839 14.6213 10.1213C15.1839 9.55871 15.5 8.79565 15.5 8C15.5 7.20435 15.1839 6.44129 14.6213 5.87868C14.0587 5.31607 13.2956 5 12.5 5C11.7044 5 10.9413 5.31607 10.3787 5.87868C9.81607 6.44129 9.5 7.20435 9.5 8C9.5 8.79565 9.81607 9.55871 10.3787 10.1213C10.9413 10.6839 11.7044 11 12.5 11ZM5.5 20C5.5 19.0807 5.68106 18.1705 6.03284 17.3212C6.38463 16.4719 6.90024 15.7003 7.55025 15.0503C8.20026 14.4002 8.97194 13.8846 9.82122 13.5328C10.6705 13.1811 11.5807 13 12.5 13C13.4193 13 14.3295 13.1811 15.1788 13.5328C16.0281 13.8846 16.7997 14.4002 17.4497 15.0503C18.0998 15.7003 18.6154 16.4719 18.9672 17.3212C19.3189 18.1705 19.5 19.0807 19.5 20H5.5Z" fill="currentColor"/>
</svg>
