<svg width="28" height="28" viewBox="0 0 28 28" fill="none" xmlns="http://www.w3.org/2000/svg">
<rect width="28" height="28" rx="4" fill="#C479F3"/>
<path fill-rule="evenodd" clip-rule="evenodd" d="M9 13V11C9 9.67392 9.52678 8.40215 10.4645 7.46447C11.4021 6.52678 12.6739 6 14 6C15.3261 6 16.5979 6.52678 17.5355 7.46447C18.4732 8.40215 19 9.67392 19 11V13C19.5304 13 20.0391 13.2107 20.4142 13.5858C20.7893 13.9609 21 14.4696 21 15V20C21 20.5304 20.7893 21.0391 20.4142 21.4142C20.0391 21.7893 19.5304 22 19 22H9C8.46957 22 7.96086 21.7893 7.58579 21.4142C7.21071 21.0391 7 20.5304 7 20V15C7 14.4696 7.21071 13.9609 7.58579 13.5858C7.96086 13.2107 8.46957 13 9 13ZM17 11V13H11V11C11 10.2044 11.3161 9.44129 11.8787 8.87868C12.4413 8.31607 13.2044 8 14 8C14.7956 8 15.5587 8.31607 16.1213 8.87868C16.6839 9.44129 17 10.2044 17 11Z" fill="white"/>
</svg>
