<svg width="16" height="16" viewBox="0 0 16 16" fill="none" xmlns="http://www.w3.org/2000/svg">
<path d="M8 16C12.9637 16 16 12.9637 16 8C16 3.03627 12.9637 0 8 0C3.03627 0 0 3.03627 0 8C0 12.9637 3.03627 16 8 16ZM8 2.66667C9.6 2.66667 10.6667 3.73333 10.6667 5.33333C10.6667 6.93333 9.6 8 8 8C6.4 8 5.33333 6.93333 5.33333 5.33333C5.33333 3.73333 6.4 2.66667 8 2.66667ZM5.50001 8.88889C5.84448 8.89018 6.04656 8.99889 6.28282 9.126C6.61812 9.30638 7.02228 9.52381 8 9.52381C8.97631 9.52381 9.38071 9.30594 9.71573 9.12545C9.95263 8.99783 10.1548 8.88889 10.5 8.88889C11.0556 8.88889 12.4444 10.4762 12.4444 11.1111C12.4444 11.746 11.0459 13.3333 7.99517 13.3333C4.94444 13.3333 3.55556 11.746 3.55556 11.1111C3.55556 10.4762 4.94444 8.88681 5.50001 8.88889Z" fill="currentColor"/>
</svg>
