<svg width="24" height="24" viewBox="0 0 24 24" fill="none" xmlns="http://www.w3.org/2000/svg">
<path d="M6.99992 13.9998C6.99992 14.265 7.10528 14.5194 7.29281 14.7069C7.48035 14.8944 7.7347 14.9998 7.99992 14.9998C8.26514 14.9998 8.51949 14.8944 8.70703 14.7069C8.89456 14.5194 8.99992 14.265 8.99992 13.9998V8.41379L10.2929 9.70679C10.4815 9.88894 10.7341 9.98974 10.9963 9.98746C11.2585 9.98518 11.5093 9.88001 11.6947 9.6946C11.8801 9.5092 11.9853 9.25838 11.9876 8.99619C11.9899 8.73399 11.8891 8.48139 11.7069 8.29279L8.70692 5.29279C8.51939 5.10532 8.26508 5 7.99992 5C7.73475 5 7.48045 5.10532 7.29292 5.29279L4.29292 8.29279C4.11076 8.48139 4.00997 8.73399 4.01224 8.99619C4.01452 9.25838 4.11969 9.5092 4.3051 9.6946C4.49051 9.88001 4.74132 9.98518 5.00352 9.98746C5.26571 9.98974 5.51832 9.88894 5.70692 9.70679L6.99992 8.41379V13.9998ZM16.9999 9.99979C16.9999 9.73457 16.8946 9.48022 16.707 9.29268C16.5195 9.10514 16.2651 8.99979 15.9999 8.99979C15.7347 8.99979 15.4803 9.10514 15.2928 9.29268C15.1053 9.48022 14.9999 9.73457 14.9999 9.99979V15.5858L13.7069 14.2928C13.5183 14.1106 13.2657 14.0098 13.0035 14.0121C12.7413 14.0144 12.4905 14.1196 12.3051 14.305C12.1197 14.4904 12.0145 14.7412 12.0122 15.0034C12.01 15.2656 12.1108 15.5182 12.2929 15.7068L15.2929 18.7068C15.4804 18.8943 15.7348 18.9996 15.9999 18.9996C16.2651 18.9996 16.5194 18.8943 16.7069 18.7068L19.7069 15.7068C19.8891 15.5182 19.9899 15.2656 19.9876 15.0034C19.9853 14.7412 19.8801 14.4904 19.6947 14.305C19.5093 14.1196 19.2585 14.0144 18.9963 14.0121C18.7341 14.0098 18.4815 14.1106 18.2929 14.2928L16.9999 15.5858V9.99979Z" fill="currentColor"/>
</svg>

