<svg width="24" height="24" viewBox="0 0 24 24" fill="none" xmlns="http://www.w3.org/2000/svg">
<path d="M7.71429 15.451C8.72838 15.451 9.64993 15.0697 10.3326 14.4479C10.6443 14.989 11.0482 15.4742 11.5238 15.8839C10.5128 16.7547 9.17782 17.2842 7.71429 17.2842C4.55837 17.2842 2 14.822 2 11.7847C2 8.74738 4.55837 6.28516 7.71429 6.28516C9.17782 6.28516 10.5128 6.81468 11.5238 7.68551C11.0482 8.09517 10.6443 8.58037 10.3326 9.12152C9.64993 8.49969 8.72838 8.11833 7.71429 8.11833C5.61034 8.11833 3.90476 9.75981 3.90476 11.7847C3.90476 13.8096 5.61034 15.451 7.71429 15.451Z" fill="currentColor"/>
<path fill-rule="evenodd" clip-rule="evenodd" d="M21.9999 11.7856C21.9999 14.8229 19.4415 17.2852 16.2856 17.2852C13.1297 17.2852 10.5713 14.8229 10.5713 11.7856C10.5713 8.74832 13.1297 6.2861 16.2856 6.2861C19.4415 6.2861 21.9999 8.74832 21.9999 11.7856ZM20.0951 11.7856C20.0951 13.8105 18.3895 15.452 16.2856 15.452C14.1816 15.452 12.4761 13.8105 12.4761 11.7856C12.4761 9.76076 14.1816 8.11927 16.2856 8.11927C18.3895 8.11927 20.0951 9.76076 20.0951 11.7856Z" fill="currentColor"/>
</svg>
