<svg width="14" height="14" viewBox="0 0 14 14" fill="none" xmlns="http://www.w3.org/2000/svg">
<path d="M3.39067 8.78622C2.76756 8.78622 2.19915 8.63376 1.68542 8.32884C1.17168 8.0206 0.762356 7.60961 0.457432 7.09588C0.152508 6.58215 4.57764e-05 6.01373 4.57764e-05 5.39062C4.57764e-05 4.9233 0.0878772 4.4858 0.26354 4.07812C0.439203 3.66714 0.682811 3.30587 0.994364 2.99432C1.30592 2.68276 1.66553 2.43916 2.0732 2.26349C2.48418 2.08783 2.92334 2 3.39067 2H3.99721V3.48153H3.39067C3.04266 3.48153 2.72448 3.56771 2.43613 3.74006C2.14777 3.91241 1.91577 4.14276 1.7401 4.43111C1.56775 4.71946 1.48158 5.0393 1.48158 5.39062C1.48158 5.74195 1.56775 6.06345 1.7401 6.35511C1.91245 6.64347 2.1428 6.87382 2.43115 7.04616C2.71951 7.21851 3.03935 7.30469 3.39067 7.30469H11.9518V8.78622H3.39067ZM8.84948 12.6293L7.83527 11.6051L11.3999 8.04545L7.83527 4.47585L8.84948 3.46165L13.4333 8.04545L8.84948 12.6293Z" fill="currentColor"/>
</svg>
