<svg width="28" height="28" viewBox="0 0 28 28" fill="none" xmlns="http://www.w3.org/2000/svg">
<rect width="28" height="28" rx="4" fill="#119C2B"/>
<path d="M14 20.5L13.9979 20.5C12.6583 20.5056 11.337 20.1885 10.1458 19.5754L9.97835 19.4892L9.79564 19.535L6.8566 20.2703L7.7976 18.0739L7.91236 17.806L7.73584 17.5741C6.95163 16.544 6.5 15.3159 6.5 14C6.5 10.4708 9.79333 7.5 14 7.5C18.2067 7.5 21.5 10.4708 21.5 14C21.5 17.5292 18.2067 20.5 14 20.5ZM11.5 13V12.5H11H9H8.5V13V15V15.5H9H11H11.5V15V13ZM19.5 13V12.5H19H17H16.5V13V15V15.5H17H19H19.5V15V13ZM13 12.5H12.5V13V15V15.5H13H15H15.5V15V13V12.5H15H13Z" fill="white" stroke="white"/>
</svg>
