<svg width="16" height="16" viewBox="0 0 16 16" fill="none" xmlns="http://www.w3.org/2000/svg">
<path d="M5 4C5 2.34315 6.34315 1 8 1C9.65685 1 11 2.34315 11 4V7C11 8.65685 9.65685 10 8 10C6.34315 10 5 8.65685 5 7V4Z" fill="currentColor"/>
<path d="M4 7C4 6.44772 3.55229 6 3 6C2.44771 6 2 6.44772 2 7C2 8.5927 2.51448 10.1005 3.56195 11.2191C4.42255 12.1381 5.59343 12.741 7 12.9335V14C7 14.5523 7.44771 15 8 15C8.55229 15 9 14.5523 9 14V12.9335C10.4066 12.741 11.5775 12.1381 12.438 11.2191C13.4855 10.1005 14 8.5927 14 7C14 6.44772 13.5523 6 13 6C12.4477 6 12 6.44772 12 7C12 8.16872 11.6253 9.16095 10.9782 9.85201C10.3408 10.5327 9.36627 11 8 11C6.63373 11 5.65919 10.5327 5.0218 9.85201C4.37468 9.16095 4 8.16872 4 7Z" fill="currentColor"/>
</svg>
