<svg width="16" height="16" viewBox="0 0 16 16" fill="none" xmlns="http://www.w3.org/2000/svg">
<path d="M9.79574 6.22661C9.80174 6.12167 9.80767 6.01607 9.80767 5.90515C9.80767 3.75925 8.07094 2.02246 5.925 2.02246C3.78507 2.02246 2.04297 3.75925 2.04297 5.90515C2.04297 8.04506 3.78507 9.78719 5.925 9.78719C6.03658 9.78719 6.14152 9.78119 6.24645 9.77586" fill="#D29404"/>
<path d="M9.79574 6.22661C9.80174 6.12167 9.80767 6.01607 9.80767 5.90515C9.80767 3.75925 8.07094 2.02246 5.925 2.02246C3.78507 2.02246 2.04297 3.75925 2.04297 5.90515C2.04297 8.04506 3.78507 9.78719 5.925 9.78719C6.03658 9.78719 6.14152 9.78119 6.24645 9.77586" stroke="#D29404" stroke-linecap="round" stroke-linejoin="round"/>
<path fill-rule="evenodd" clip-rule="evenodd" d="M13.9997 10.0962C13.9997 7.95226 12.2623 6.21484 10.1183 6.21484C7.97506 6.21484 6.23698 7.95226 6.23698 10.0962C6.23698 12.2401 7.97506 13.9776 10.1183 13.9776C12.2623 13.9776 13.9997 12.2401 13.9997 10.0962Z" fill="#D29404" stroke="white" stroke-width="0.5" stroke-linecap="round" stroke-linejoin="round"/>
</svg>
