<svg width="24" height="24" viewBox="0 0 24 24" fill="none" xmlns="http://www.w3.org/2000/svg">
<mask id="mask0_2830_671" style="mask-type:alpha" maskUnits="userSpaceOnUse" x="0" y="0" width="24" height="24">
<rect width="24" height="24" fill="#D9D9D9"/>
</mask>
<g mask="url(#mask0_2830_671)">
<path d="M9.57457 17.5752C9.44097 17.5752 9.31177 17.55 9.18697 17.4996C9.06217 17.45 8.94137 17.3668 8.82457 17.25L4.59937 13.0248C4.39937 12.8248 4.30377 12.5708 4.31257 12.2628C4.32057 11.954 4.42457 11.6996 4.62457 11.4996C4.82457 11.2996 5.07457 11.1996 5.37457 11.1996C5.67457 11.1996 5.92457 11.2996 6.12457 11.4996L9.62497 15L17.9002 6.7248C18.1002 6.5248 18.3458 6.4248 18.637 6.4248C18.929 6.4248 19.175 6.5248 19.375 6.7248C19.575 6.9248 19.675 7.1708 19.675 7.4628C19.675 7.754 19.575 7.9996 19.375 8.1996L10.3246 17.25C10.2078 17.3668 10.087 17.45 9.96217 17.4996C9.83737 17.55 9.70817 17.5752 9.57457 17.5752Z" fill="#18C549"/>
</g>
</svg>
