<svg width="25" height="24" viewBox="0 0 25 24" fill="none" xmlns="http://www.w3.org/2000/svg">
<path d="M12.5621 19.7461L3.5 9.69301L6.64817 5H18.3362L21.4783 9.68404L12.5621 19.7461Z" fill="#BF1B81"/>
<path d="M12.5642 19.7436L21.4782 9.68404L18.3362 5H12.5642V19.7436Z" fill="#D6298C"/>
<path d="M3.5 9.69336L12.5621 19.7465L21.4531 9.71305L3.5 9.69336Z" fill="#FF5CA8"/>
<path d="M12.5642 9.70312V19.7438L21.453 9.71286L12.5642 9.70312Z" fill="#FF3997"/>
<path d="M12.562 19.7463L8.83423 9.71289H16.1655L12.562 19.7463Z" fill="#FF3997"/>
<path d="M16.1657 9.7127H8.83433L12.5645 5L16.1657 9.7127ZM3.5 9.69301L8.83433 9.7127L6.64817 5L3.5 9.69301Z" fill="#D6298C"/>
<path d="M21.5001 9.69301L16.1658 9.7127L18.352 5L21.5001 9.69301Z" fill="#FF5CA8"/>
<path d="M12.5642 9.71289V19.7401L16.1656 9.71289H12.5642Z" fill="#D6298C"/>
<path d="M12.5642 5.00039V9.7127H16.1656L12.5642 5.00039ZM21.4999 9.69301L16.1656 9.7127L18.3518 5L21.4999 9.69301Z" fill="#BF1B81"/>
</svg>
