<svg width="24" height="24" viewBox="0 0 24 24" fill="none" xmlns="http://www.w3.org/2000/svg">
<path fill-rule="evenodd" clip-rule="evenodd" d="M12 7C12.2652 7 12.5196 7.10536 12.7071 7.29289C12.8946 7.48043 13 7.73478 13 8V11H16C16.2652 11 16.5196 11.1054 16.7071 11.2929C16.8946 11.4804 17 11.7348 17 12C17 12.2652 16.8946 12.5196 16.7071 12.7071C16.5196 12.8946 16.2652 13 16 13H13V16C13 16.2652 12.8946 16.5196 12.7071 16.7071C12.5196 16.8946 12.2652 17 12 17C11.7348 17 11.4804 16.8946 11.2929 16.7071C11.1054 16.5196 11 16.2652 11 16V13H8C7.73478 13 7.48043 12.8946 7.29289 12.7071C7.10536 12.5196 7 12.2652 7 12C7 11.7348 7.10536 11.4804 7.29289 11.2929C7.48043 11.1054 7.73478 11 8 11H11V8C11 7.73478 11.1054 7.48043 11.2929 7.29289C11.4804 7.10536 11.7348 7 12 7Z" fill="currentColor"/>
</svg>
