<svg width="132" height="132" viewBox="0 0 132 132" fill="none" xmlns="http://www.w3.org/2000/svg">
<g filter="url(#filter0_d_4025_23517)">
<path d="M19.3104 84.8928C23.1717 92.7678 28.9621 99.5382 36.1429 104.574C43.3237 109.61 51.6616 112.748 60.3809 113.696C69.1002 114.643 77.9176 113.37 86.0127 109.995C94.1078 106.619 101.218 101.251 106.681 94.3896L101.799 90.5028C96.9915 96.5409 90.7349 101.265 83.6112 104.235C76.4875 107.206 68.7282 108.326 61.0552 107.492C53.3822 106.658 46.0449 103.897 39.7257 99.4652C33.4066 95.0336 28.3111 89.0757 24.9132 82.1457L19.3104 84.8928Z" fill="#B89AE4"/>
</g>
<g filter="url(#filter1_d_4025_23517)">
<path d="M106.602 94.4879C112.717 86.8458 116.551 77.6331 117.663 67.9091C118.775 58.1851 117.121 48.3447 112.889 39.5192C108.658 30.6937 102.022 23.2416 93.744 18.0197C85.4661 12.7977 75.8824 10.018 66.0951 10.0001L66.0837 16.2401C74.6965 16.2558 83.1301 18.702 90.4147 23.2973C97.6993 27.8926 103.539 34.4505 107.263 42.2169C110.986 49.9833 112.442 58.6429 111.464 67.2C110.485 75.7571 107.111 83.8643 101.73 90.5893L106.602 94.4879Z" fill="#82C4B8"/>
</g>
<g filter="url(#filter2_d_4025_23517)">
<path d="M32.0545 22.6084C23.2912 30.16 17.2963 40.4182 15.0182 51.7598C12.7402 63.1014 14.309 74.8789 19.4766 85.2287L25.0594 82.4412C20.5119 73.3334 19.1314 62.9693 21.1361 52.9887C23.1408 43.008 28.4163 33.9808 36.1279 27.3354L32.0545 22.6084Z" fill="#FFBE7C"/>
</g>
<g filter="url(#filter3_d_4025_23517)">
<path d="M62.5467 10.1148C51.1965 10.8702 40.4071 15.3267 31.832 22.8011L35.9322 27.505C43.4782 20.9275 52.9729 17.0058 62.9611 16.341L62.5467 10.1148Z" fill="#85BADA"/>
</g>
<g filter="url(#filter4_d_4025_23517)">
<path d="M66.1302 10.0002C64.1218 9.99514 62.1147 10.1065 60.1192 10.3336L60.8249 16.5336C62.581 16.3337 64.3471 16.2357 66.1146 16.2401L66.1302 10.0002Z" fill="#FF9D97"/>
</g>
<g filter="url(#filter5_f_4025_23517)">
<path d="M36.3068 59.2893V46.3967H37.1327V59.2893H36.3068ZM39.0868 50.2645C39.0263 49.7541 38.7812 49.358 38.3515 49.0759C37.9217 48.7939 37.3946 48.6529 36.7701 48.6529C36.3135 48.6529 35.914 48.7268 35.5715 48.8745C35.2324 49.0222 34.9672 49.2253 34.7758 49.4839C34.5878 49.7424 34.4938 50.0362 34.4938 50.3652C34.4938 50.6405 34.5593 50.8772 34.6902 51.0753C34.8245 51.27 34.9957 51.4329 35.2039 51.5638C35.4121 51.6914 35.6303 51.7971 35.8586 51.8811C36.0869 51.9616 36.2967 52.0271 36.4881 52.0775L37.5356 52.3595C37.8042 52.43 38.103 52.5274 38.4321 52.6516C38.7645 52.7758 39.0817 52.9454 39.3839 53.1603C39.6894 53.3718 39.9412 53.6437 40.1393 53.9761C40.3374 54.3085 40.4365 54.7164 40.4365 55.1999C40.4365 55.7572 40.2904 56.2608 39.9983 56.7107C39.7096 57.1606 39.2865 57.5182 38.7292 57.7834C38.1752 58.0487 37.5021 58.1813 36.7097 58.1813C35.9711 58.1813 35.3315 58.0621 34.7909 57.8237C34.2537 57.5854 33.8307 57.253 33.5218 56.8266C33.2163 56.4002 33.0434 55.905 33.0031 55.3409H34.2923C34.3259 55.7304 34.4569 56.0527 34.6852 56.3079C34.9168 56.5597 35.2089 56.7477 35.5615 56.8719C35.9173 56.9928 36.3001 57.0532 36.7097 57.0532C37.1865 57.0532 37.6145 56.976 37.9939 56.8215C38.3733 56.6637 38.6738 56.4455 38.8954 56.1668C39.117 55.8848 39.2278 55.5558 39.2278 55.1798C39.2278 54.8373 39.1321 54.5586 38.9407 54.3438C38.7493 54.1289 38.4975 53.9543 38.1853 53.82C37.8731 53.6857 37.5356 53.5682 37.173 53.4675L35.9039 53.1049C35.0981 52.8732 34.4602 52.5425 33.9902 52.1127C33.5201 51.683 33.2851 51.1206 33.2851 50.4256C33.2851 49.8481 33.4412 49.3445 33.7535 48.9148C34.0691 48.4817 34.4921 48.1459 35.0226 47.9075C35.5564 47.6658 36.1524 47.5449 36.8104 47.5449C37.4752 47.5449 38.0661 47.6641 38.5832 47.9025C39.1002 48.1375 39.5098 48.4598 39.812 48.8694C40.1175 49.2791 40.2787 49.7441 40.2954 50.2645H39.0868ZM45.6124 58.141C44.9207 58.141 44.3097 58.0185 43.7792 57.7734C43.2521 57.5249 42.8408 57.1841 42.5453 56.751C42.2499 56.3146 42.1038 55.8177 42.1072 55.2603C42.1038 54.8239 42.1895 54.421 42.364 54.0517C42.5386 53.679 42.777 53.3684 43.0792 53.12C43.3847 52.8682 43.7255 52.7087 44.1015 52.6415V52.5811C43.608 52.4535 43.2152 52.1765 42.9231 51.7501C42.631 51.3204 42.4866 50.8319 42.49 50.2846C42.4866 49.7608 42.6192 49.2925 42.8878 48.8795C43.1564 48.4666 43.5257 48.1409 43.9958 47.9025C44.4692 47.6641 45.008 47.5449 45.6124 47.5449C46.21 47.5449 46.7438 47.6641 47.2139 47.9025C47.6839 48.1409 48.0532 48.4666 48.3218 48.8795C48.5938 49.2925 48.7314 49.7608 48.7348 50.2846C48.7314 50.8319 48.582 51.3204 48.2866 51.7501C47.9945 52.1765 47.6067 52.4535 47.1232 52.5811V52.6415C47.4959 52.7087 47.8316 52.8682 48.1304 53.12C48.4293 53.3684 48.6676 53.679 48.8456 54.0517C49.0235 54.421 49.1142 54.8239 49.1175 55.2603C49.1142 55.8177 48.9631 56.3146 48.6643 56.751C48.3688 57.1841 47.9575 57.5249 47.4304 57.7734C46.9067 58.0185 46.3006 58.141 45.6124 58.141ZM45.6124 57.0331C46.0791 57.0331 46.4819 56.9575 46.821 56.8064C47.1601 56.6553 47.422 56.4421 47.6067 56.1668C47.7913 55.8915 47.8854 55.5692 47.8887 55.1999C47.8854 54.8104 47.7846 54.4663 47.5865 54.1675C47.3885 53.8687 47.1182 53.6337 46.7757 53.4624C46.4366 53.2912 46.0488 53.2056 45.6124 53.2056C45.1725 53.2056 44.7797 53.2912 44.4339 53.4624C44.0914 53.6337 43.8212 53.8687 43.6231 54.1675C43.4284 54.4663 43.3327 54.8104 43.336 55.1999C43.3327 55.5692 43.4216 55.8915 43.6029 56.1668C43.7876 56.4421 44.0512 56.6553 44.3936 56.8064C44.7361 56.9575 45.1423 57.0331 45.6124 57.0331ZM45.6124 52.1379C45.9817 52.1379 46.309 52.064 46.5944 51.9163C46.8832 51.7686 47.1098 51.5621 47.2743 51.2969C47.4388 51.0316 47.5227 50.7211 47.5261 50.3652C47.5227 50.016 47.4405 49.7122 47.2793 49.4536C47.1182 49.1918 46.8949 48.9903 46.6095 48.8493C46.3241 48.7049 45.9918 48.6327 45.6124 48.6327C45.2263 48.6327 44.8888 48.7049 44.6001 48.8493C44.3114 48.9903 44.0881 49.1918 43.9303 49.4536C43.7725 49.7122 43.6953 50.016 43.6986 50.3652C43.6953 50.7211 43.7742 51.0316 43.9353 51.2969C44.0998 51.5621 44.3265 51.7686 44.6152 51.9163C44.9039 52.064 45.2363 52.1379 45.6124 52.1379ZM52.522 56.5899L52.4414 57.1338C52.3843 57.5165 52.297 57.9261 52.1795 58.3626C52.0654 58.7991 51.9462 59.2104 51.8219 59.5965C51.6977 59.9826 51.5953 60.2898 51.5147 60.5181H50.6082C50.6519 60.3032 50.709 60.0195 50.7795 59.667C50.85 59.3144 50.9205 58.9199 50.991 58.4835C51.0648 58.0504 51.1253 57.6072 51.1723 57.1539L51.2327 56.5899H52.522ZM57.7684 58.141C57.3454 58.1343 56.9223 58.0537 56.4993 57.8993C56.0762 57.7448 55.6901 57.4846 55.341 57.1187C54.9918 56.7494 54.7114 56.2508 54.4999 55.6229C54.2884 54.9917 54.1826 54.1994 54.1826 53.2459C54.1826 52.3326 54.2683 51.5235 54.4395 50.8184C54.6107 50.11 54.8592 49.5141 55.1848 49.0306C55.5105 48.5438 55.9033 48.1745 56.3633 47.9226C56.8266 47.6708 57.3487 47.5449 57.9295 47.5449C58.507 47.5449 59.0207 47.6608 59.4706 47.8924C59.9239 48.1207 60.2932 48.4397 60.5786 48.8493C60.8639 49.2589 61.0486 49.7306 61.1325 50.2645H59.9037C59.7896 49.8011 59.568 49.4167 59.2389 49.1112C58.9099 48.8057 58.4735 48.6529 57.9295 48.6529C57.1305 48.6529 56.501 49.0004 56.041 49.6954C55.5844 50.3904 55.3544 51.3657 55.351 52.6214H55.4316C55.6196 52.336 55.8429 52.0926 56.1014 51.8911C56.3633 51.6863 56.652 51.5285 56.9676 51.4177C57.2832 51.3069 57.6173 51.2515 57.9698 51.2515C58.5607 51.2515 59.1013 51.3993 59.5915 51.6947C60.0817 51.9868 60.4745 52.3914 60.7699 52.9084C61.0654 53.4221 61.2131 54.0114 61.2131 54.6761C61.2131 55.314 61.0704 55.8982 60.785 56.4287C60.4997 56.9558 60.0985 57.3755 59.5814 57.6878C59.0677 57.9966 58.4634 58.1477 57.7684 58.141ZM57.7684 57.0331C58.1914 57.0331 58.5708 56.9273 58.9066 56.7158C59.2457 56.5043 59.5126 56.2206 59.7073 55.8647C59.9054 55.5088 60.0044 55.1126 60.0044 54.6761C60.0044 54.2497 59.9088 53.862 59.7174 53.5128C59.5294 53.1603 59.2692 52.8799 58.9368 52.6717C58.6077 52.4636 58.2317 52.3595 57.8087 52.3595C57.4897 52.3595 57.1926 52.4233 56.9173 52.5509C56.642 52.6751 56.4002 52.8463 56.1921 53.0646C55.9873 53.2828 55.8261 53.5329 55.7086 53.815C55.5911 54.0936 55.5323 54.3874 55.5323 54.6963C55.5323 55.1059 55.628 55.4886 55.8194 55.8445C56.0141 56.2004 56.2794 56.4875 56.6151 56.7057C56.9542 56.9239 57.3386 57.0331 57.7684 57.0331ZM66.4167 58.141C65.8258 58.141 65.2937 58.0235 64.8203 57.7885C64.3469 57.5535 63.9675 57.2311 63.6821 56.8215C63.3967 56.4119 63.2406 55.9452 63.2137 55.4215H64.4224C64.4694 55.8882 64.6809 56.2743 65.057 56.5798C65.4364 56.882 65.8896 57.0331 66.4167 57.0331C66.8398 57.0331 67.2158 56.934 67.5448 56.7359C67.8772 56.5378 68.1374 56.2659 68.3254 55.9201C68.5168 55.5709 68.6125 55.1764 68.6125 54.7366C68.6125 54.2867 68.5135 53.8855 68.3154 53.5329C68.1206 53.177 67.852 52.8967 67.5096 52.6919C67.1671 52.4871 66.776 52.383 66.3362 52.3796C66.0206 52.3763 65.6966 52.425 65.3642 52.5257C65.0318 52.6231 64.7582 52.749 64.5433 52.9034L63.3749 52.7624L63.9994 47.686H69.3578V48.7939H65.0469L64.6843 51.8357H64.7447C64.9562 51.6679 65.2215 51.5285 65.5404 51.4177C65.8594 51.3069 66.1918 51.2515 66.5376 51.2515C67.1688 51.2515 67.7312 51.4026 68.2247 51.7048C68.7216 52.0036 69.1111 52.4132 69.3931 52.9336C69.6785 53.454 69.8212 54.0483 69.8212 54.7164C69.8212 55.3745 69.6734 55.962 69.378 56.4791C69.0859 56.9928 68.683 57.399 68.1693 57.6978C67.6556 57.9933 67.0714 58.141 66.4167 58.141ZM71.58 55.8848V54.8574L76.1126 47.686H76.8579V49.2774H76.3543L72.9297 54.6963V54.7769H79.0336V55.8848H71.58ZM76.4349 58V55.5726V55.0941V47.686H77.6234V58H76.4349ZM81.3225 58.0806C81.074 58.0806 80.8609 57.9916 80.6829 57.8137C80.505 57.6357 80.416 57.4225 80.416 57.1741C80.416 56.9256 80.505 56.7124 80.6829 56.5345C80.8609 56.3565 81.074 56.2676 81.3225 56.2676C81.5709 56.2676 81.7841 56.3565 81.9621 56.5345C82.14 56.7124 82.229 56.9256 82.229 57.1741C82.229 57.3386 82.187 57.4897 82.1031 57.6273C82.0225 57.765 81.9134 57.8758 81.7758 57.9597C81.6415 58.0403 81.4904 58.0806 81.3225 58.0806ZM87.3571 58.141C86.7662 58.141 86.234 58.0235 85.7606 57.7885C85.2872 57.5535 84.9078 57.2311 84.6224 56.8215C84.3371 56.4119 84.1809 55.9452 84.1541 55.4215H85.3628C85.4098 55.8882 85.6213 56.2743 85.9973 56.5798C86.3767 56.882 86.83 57.0331 87.3571 57.0331C87.7801 57.0331 88.1561 56.934 88.4852 56.7359C88.8176 56.5378 89.0778 56.2659 89.2658 55.9201C89.4571 55.5709 89.5528 55.1764 89.5528 54.7366C89.5528 54.2867 89.4538 53.8855 89.2557 53.5329C89.061 53.177 88.7924 52.8967 88.4499 52.6919C88.1075 52.4871 87.7163 52.383 87.2765 52.3796C86.9609 52.3763 86.6369 52.425 86.3045 52.5257C85.9721 52.6231 85.6985 52.749 85.4836 52.9034L84.3152 52.7624L84.9397 47.686H90.2982V48.7939H85.9872L85.6246 51.8357H85.6851C85.8966 51.6679 86.1618 51.5285 86.4808 51.4177C86.7997 51.3069 87.1321 51.2515 87.4779 51.2515C88.1091 51.2515 88.6715 51.4026 89.1651 51.7048C89.662 52.0036 90.0514 52.4132 90.3334 52.9336C90.6188 53.454 90.7615 54.0483 90.7615 54.7164C90.7615 55.3745 90.6138 55.962 90.3183 56.4791C90.0262 56.9928 89.6233 57.399 89.1097 57.6978C88.596 57.9933 88.0118 58.141 87.3571 58.141ZM95.9853 58.141C95.3944 58.141 94.8622 58.0235 94.3888 57.7885C93.9154 57.5535 93.536 57.2311 93.2506 56.8215C92.9653 56.4119 92.8091 55.9452 92.7823 55.4215H93.9909C94.038 55.8882 94.2495 56.2743 94.6255 56.5798C95.0049 56.882 95.4581 57.0331 95.9853 57.0331C96.4083 57.0331 96.7843 56.934 97.1134 56.7359C97.4458 56.5378 97.706 56.2659 97.894 55.9201C98.0853 55.5709 98.181 55.1764 98.181 54.7366C98.181 54.2867 98.082 53.8855 97.8839 53.5329C97.6892 53.177 97.4206 52.8967 97.0781 52.6919C96.7357 52.4871 96.3445 52.383 95.9047 52.3796C95.5891 52.3763 95.2651 52.425 94.9327 52.5257C94.6003 52.6231 94.3267 52.749 94.1118 52.9034L92.9434 52.7624L93.5679 47.686H98.9264V48.7939H94.6154L94.2528 51.8357H94.3133C94.5248 51.6679 94.79 51.5285 95.109 51.4177C95.4279 51.3069 95.7603 51.2515 96.1061 51.2515C96.7373 51.2515 97.2997 51.4026 97.7932 51.7048C98.2901 52.0036 98.6796 52.4132 98.9616 52.9336C99.247 53.454 99.3897 54.0483 99.3897 54.7164C99.3897 55.3745 99.242 55.962 98.9465 56.4791C98.6544 56.9928 98.2515 57.399 97.7379 57.6978C97.2242 57.9933 96.64 58.141 95.9853 58.141Z" fill="currentColor"/>
</g>
<path d="M40.1016 77H38.7921L42.5793 66.686H43.8686L47.6558 77H46.3464L43.2643 68.3177H43.1837L40.1016 77ZM40.585 72.9711H45.8629V74.079H40.585V72.9711ZM49.1012 79.9008V69.2645H50.2494V70.4933H50.3904C50.4777 70.359 50.5986 70.1878 50.753 69.9796C50.9108 69.7681 51.1358 69.5801 51.4279 69.4155C51.7233 69.2477 52.1229 69.1637 52.6265 69.1637C53.2778 69.1637 53.8519 69.3266 54.3488 69.6522C54.8457 69.9779 55.2335 70.4396 55.5122 71.0372C55.7909 71.6348 55.9302 72.3399 55.9302 73.1524C55.9302 73.9716 55.7909 74.6817 55.5122 75.2827C55.2335 75.8803 54.8474 76.3436 54.3539 76.6726C53.8603 76.9983 53.2912 77.1612 52.6466 77.1612C52.1497 77.1612 51.7519 77.0789 51.453 76.9144C51.1542 76.7465 50.9243 76.5568 50.7631 76.3453C50.6019 76.1304 50.4777 75.9525 50.3904 75.8115H50.2897V79.9008H49.1012ZM50.2696 73.1322C50.2696 73.7164 50.3552 74.2318 50.5264 74.6783C50.6976 75.1215 50.9478 75.469 51.2768 75.7208C51.6058 75.9693 52.0087 76.0935 52.4855 76.0935C52.9824 76.0935 53.397 75.9626 53.7294 75.7007C54.0651 75.4354 54.3169 75.0795 54.4848 74.633C54.656 74.1831 54.7417 73.6829 54.7417 73.1322C54.7417 72.5883 54.6577 72.0981 54.4899 71.6617C54.3253 71.2218 54.0752 70.8744 53.7395 70.6192C53.4071 70.3607 52.9891 70.2314 52.4855 70.2314C52.002 70.2314 51.5957 70.354 51.2667 70.599C50.9377 70.8408 50.6892 71.1799 50.5214 71.6163C50.3535 72.0495 50.2696 72.5548 50.2696 73.1322ZM57.7432 77V69.2645H58.8915V70.4329H58.972C59.113 70.0501 59.3682 69.7395 59.7375 69.5012C60.1068 69.2628 60.5232 69.1436 60.9865 69.1436C61.0738 69.1436 61.1829 69.1453 61.3138 69.1486C61.4448 69.152 61.5438 69.157 61.611 69.1637V70.3724C61.5707 70.3623 61.4784 70.3472 61.334 70.3271C61.193 70.3036 61.0436 70.2918 60.8858 70.2918C60.5097 70.2918 60.174 70.3707 59.8785 70.5285C59.5864 70.683 59.3548 70.8979 59.1836 71.1732C59.0157 71.4451 58.9317 71.7557 58.9317 72.1049V77H57.7432ZM63.0198 77V69.2645H64.2084V77H63.0198ZM63.6242 67.9752C63.3925 67.9752 63.1927 67.8963 63.0249 67.7385C62.8604 67.5807 62.7781 67.391 62.7781 67.1694C62.7781 66.9478 62.8604 66.7581 63.0249 66.6003C63.1927 66.4425 63.3925 66.3636 63.6242 66.3636C63.8558 66.3636 64.0539 66.4425 64.2184 66.6003C64.3863 66.7581 64.4703 66.9478 64.4703 67.1694C64.4703 67.391 64.3863 67.5807 64.2184 67.7385C64.0539 67.8963 63.8558 67.9752 63.6242 67.9752ZM67.5738 66.686V77H66.3853V66.686H67.5738ZM71.5234 75.5899L71.4428 76.1338C71.3857 76.5165 71.2984 76.9261 71.1809 77.3626C71.0668 77.7991 70.9476 78.2104 70.8234 78.5965C70.6991 78.9826 70.5967 79.2898 70.5162 79.5181H69.6097C69.6533 79.3032 69.7104 79.0195 69.7809 78.667C69.8514 78.3144 69.9219 77.9199 69.9924 77.4835C70.0663 77.0504 70.1267 76.6072 70.1737 76.1539L70.2341 75.5899H71.5234ZM77.6939 77V76.0935L81.0984 72.3667C81.4979 71.9303 81.8269 71.5509 82.0855 71.2286C82.344 70.9029 82.5354 70.5974 82.6596 70.312C82.7872 70.0232 82.851 69.7211 82.851 69.4055C82.851 69.0429 82.7637 68.729 82.5891 68.4637C82.4179 68.1985 82.1828 67.9937 81.884 67.8493C81.5852 67.7049 81.2495 67.6327 80.8768 67.6327C80.4806 67.6327 80.1348 67.715 79.8393 67.8795C79.5472 68.0407 79.3206 68.2673 79.1595 68.5594C79.0017 68.8515 78.9228 69.194 78.9228 69.5868H77.7342C77.7342 68.9824 77.8736 68.452 78.1522 67.9954C78.4309 67.5387 78.8103 67.1829 79.2904 66.9277C79.7739 66.6725 80.3161 66.5449 80.9171 66.5449C81.5214 66.5449 82.0569 66.6725 82.5236 66.9277C82.9903 67.1829 83.3563 67.527 83.6215 67.9601C83.8867 68.3932 84.0194 68.875 84.0194 69.4055C84.0194 69.7849 83.9505 70.1559 83.8129 70.5185C83.6786 70.8777 83.4436 71.2789 83.1078 71.7221C82.7754 72.1619 82.3138 72.6991 81.7229 73.3337L79.4062 75.8115V75.892H84.2007V77H77.6939ZM85.8173 74.8848V73.8574L90.3498 66.686H91.0952V68.2774H90.5915L87.167 73.6963V73.7769H93.2708V74.8848H85.8173ZM90.6721 77V74.5726V74.0941V66.686H91.8607V77H90.6721Z" fill="#5B6871"/>
<defs>
<filter id="filter0_d_4025_23517" x="5.31039" y="72.1465" width="115.37" height="59.8535" filterUnits="userSpaceOnUse" color-interpolation-filters="sRGB">
<feFlood flood-opacity="0" result="BackgroundImageFix"/>
<feColorMatrix in="SourceAlpha" type="matrix" values="0 0 0 0 0 0 0 0 0 0 0 0 0 0 0 0 0 0 127 0" result="hardAlpha"/>
<feOffset dy="4"/>
<feGaussianBlur stdDeviation="7"/>
<feComposite in2="hardAlpha" operator="out"/>
<feColorMatrix type="matrix" values="0 0 0 0 0.705882 0 0 0 0 0.619608 0 0 0 0 0.878431 0 0 0 0.4 0"/>
<feBlend mode="normal" in2="BackgroundImageFix" result="effect1_dropShadow_4025_23517"/>
<feBlend mode="normal" in="SourceGraphic" in2="effect1_dropShadow_4025_23517" result="shape"/>
</filter>
<filter id="filter1_d_4025_23517" x="52.0836" y="0" width="79.9164" height="112.488" filterUnits="userSpaceOnUse" color-interpolation-filters="sRGB">
<feFlood flood-opacity="0" result="BackgroundImageFix"/>
<feColorMatrix in="SourceAlpha" type="matrix" values="0 0 0 0 0 0 0 0 0 0 0 0 0 0 0 0 0 0 127 0" result="hardAlpha"/>
<feOffset dy="4"/>
<feGaussianBlur stdDeviation="7"/>
<feComposite in2="hardAlpha" operator="out"/>
<feColorMatrix type="matrix" values="0 0 0 0 0.509804 0 0 0 0 0.768627 0 0 0 0 0.721569 0 0 0 0.4 0"/>
<feBlend mode="normal" in2="BackgroundImageFix" result="effect1_dropShadow_4025_23517"/>
<feBlend mode="normal" in="SourceGraphic" in2="effect1_dropShadow_4025_23517" result="shape"/>
</filter>
<filter id="filter2_d_4025_23517" x="-6.10352e-05" y="12.6074" width="50.128" height="90.6211" filterUnits="userSpaceOnUse" color-interpolation-filters="sRGB">
<feFlood flood-opacity="0" result="BackgroundImageFix"/>
<feColorMatrix in="SourceAlpha" type="matrix" values="0 0 0 0 0 0 0 0 0 0 0 0 0 0 0 0 0 0 127 0" result="hardAlpha"/>
<feOffset dy="4"/>
<feGaussianBlur stdDeviation="7"/>
<feComposite in2="hardAlpha" operator="out"/>
<feColorMatrix type="matrix" values="0 0 0 0 1 0 0 0 0 0.745098 0 0 0 0 0.490196 0 0 0 0.4 0"/>
<feBlend mode="normal" in2="BackgroundImageFix" result="effect1_dropShadow_4025_23517"/>
<feBlend mode="normal" in="SourceGraphic" in2="effect1_dropShadow_4025_23517" result="shape"/>
</filter>
<filter id="filter3_d_4025_23517" x="17.832" y="0.115234" width="59.1291" height="45.3906" filterUnits="userSpaceOnUse" color-interpolation-filters="sRGB">
<feFlood flood-opacity="0" result="BackgroundImageFix"/>
<feColorMatrix in="SourceAlpha" type="matrix" values="0 0 0 0 0 0 0 0 0 0 0 0 0 0 0 0 0 0 127 0" result="hardAlpha"/>
<feOffset dy="4"/>
<feGaussianBlur stdDeviation="7"/>
<feComposite in2="hardAlpha" operator="out"/>
<feColorMatrix type="matrix" values="0 0 0 0 0.521569 0 0 0 0 0.729412 0 0 0 0 0.854902 0 0 0 0.4 0"/>
<feBlend mode="normal" in2="BackgroundImageFix" result="effect1_dropShadow_4025_23517"/>
<feBlend mode="normal" in="SourceGraphic" in2="effect1_dropShadow_4025_23517" result="shape"/>
</filter>
<filter id="filter4_d_4025_23517" x="46.1192" y="0" width="34.011" height="34.5332" filterUnits="userSpaceOnUse" color-interpolation-filters="sRGB">
<feFlood flood-opacity="0" result="BackgroundImageFix"/>
<feColorMatrix in="SourceAlpha" type="matrix" values="0 0 0 0 0 0 0 0 0 0 0 0 0 0 0 0 0 0 127 0" result="hardAlpha"/>
<feOffset dy="4"/>
<feGaussianBlur stdDeviation="7"/>
<feComposite in2="hardAlpha" operator="out"/>
<feColorMatrix type="matrix" values="0 0 0 0 1 0 0 0 0 0.615686 0 0 0 0 0.592157 0 0 0 0.4 0"/>
<feBlend mode="normal" in2="BackgroundImageFix" result="effect1_dropShadow_4025_23517"/>
<feBlend mode="normal" in="SourceGraphic" in2="effect1_dropShadow_4025_23517" result="shape"/>
</filter>
<filter id="filter5_f_4025_23517" x="29.392" y="42.7854" width="73.6088" height="21.3433" filterUnits="userSpaceOnUse" color-interpolation-filters="sRGB">
<feFlood flood-opacity="0" result="BackgroundImageFix"/>
<feBlend mode="normal" in="SourceGraphic" in2="BackgroundImageFix" result="shape"/>
<feGaussianBlur stdDeviation="1.80556" result="effect1_foregroundBlur_4025_23517"/>
</filter>
</defs>
</svg>
