<svg width="28" height="28" viewBox="0 0 28 28" fill="none" xmlns="http://www.w3.org/2000/svg">
<rect width="28" height="28" rx="4" fill="#F8C51B"/>
<path d="M16.6936 11.3394C16.7026 11.182 16.7115 11.0236 16.7115 10.8572C16.7115 7.63838 14.1064 5.0332 10.8875 5.0332C7.6776 5.0332 5.06445 7.63838 5.06445 10.8572C5.06445 14.0671 7.6776 16.6803 10.8875 16.6803C11.0549 16.6803 11.2123 16.6713 11.3697 16.6633" fill="white"/>
<path d="M16.6936 11.3394C16.7026 11.182 16.7115 11.0236 16.7115 10.8572C16.7115 7.63838 14.1064 5.0332 10.8875 5.0332C7.6776 5.0332 5.06445 7.63838 5.06445 10.8572C5.06445 14.0671 7.6776 16.6803 10.8875 16.6803C11.0549 16.6803 11.2123 16.6713 11.3697 16.6633" stroke="white" stroke-width="1.5" stroke-linecap="round" stroke-linejoin="round"/>
<path fill-rule="evenodd" clip-rule="evenodd" d="M22.9996 17.1443C22.9996 13.9284 20.3934 11.3223 17.1775 11.3223C13.9626 11.3223 11.3555 13.9284 11.3555 17.1443C11.3555 20.3602 13.9626 22.9664 17.1775 22.9664C20.3934 22.9664 22.9996 20.3602 22.9996 17.1443Z" fill="white" stroke="#F8C51B" stroke-width="0.75" stroke-linecap="round" stroke-linejoin="round"/>
</svg>
