<svg width="24" height="24" viewBox="0 0 24 24" fill="none" xmlns="http://www.w3.org/2000/svg">
<path fill-rule="evenodd" clip-rule="evenodd" d="M9.293 16.7064C9.10553 16.5189 9.00021 16.2646 9.00021 15.9994C9.00021 15.7343 9.10553 15.48 9.293 15.2924L12.586 11.9994L9.293 8.70643C9.11084 8.51783 9.01005 8.26523 9.01233 8.00303C9.0146 7.74083 9.11977 7.49002 9.30518 7.30461C9.49059 7.1192 9.7414 7.01403 10.0036 7.01176C10.2658 7.00948 10.5184 7.11027 10.707 7.29243L14.707 11.2924C14.8945 11.48 14.9998 11.7343 14.9998 11.9994C14.9998 12.2646 14.8945 12.5189 14.707 12.7064L10.707 16.7064C10.5195 16.8939 10.2652 16.9992 10 16.9992C9.73484 16.9992 9.48053 16.8939 9.293 16.7064Z" fill="currentColor"/>
</svg>
