<svg width="24" height="24" viewBox="0 0 24 24" fill="none" xmlns="http://www.w3.org/2000/svg">
<path fill-rule="evenodd" clip-rule="evenodd" d="M13.4897 5.17C13.1097 3.61 10.8898 3.61 10.5098 5.17C10.453 5.40442 10.3417 5.62213 10.185 5.80541C10.0282 5.9887 9.83038 6.13238 9.60759 6.22477C9.38481 6.31716 9.14336 6.35564 8.90289 6.33709C8.66242 6.31854 8.42973 6.24347 8.22375 6.118C6.85175 5.282 5.28175 6.852 6.11775 8.224C6.65775 9.11 6.17875 10.266 5.17075 10.511C3.60975 10.89 3.60975 13.111 5.17075 13.489C5.40523 13.5458 5.62298 13.6572 5.80626 13.8141C5.98955 13.971 6.13319 14.1689 6.22549 14.3918C6.31779 14.6147 6.35614 14.8563 6.33742 15.0968C6.3187 15.3373 6.24343 15.5701 6.11775 15.776C5.28175 17.148 6.85175 18.718 8.22375 17.882C8.42969 17.7563 8.6624 17.6811 8.90293 17.6623C9.14347 17.6436 9.38502 17.682 9.60793 17.7743C9.83084 17.8666 10.0288 18.0102 10.1857 18.1935C10.3426 18.3768 10.4539 18.5945 10.5107 18.829C10.8898 20.39 13.1108 20.39 13.4888 18.829C13.5457 18.5946 13.6572 18.377 13.8142 18.1939C13.9711 18.0107 14.169 17.8672 14.3918 17.7749C14.6147 17.6826 14.8561 17.6442 15.0966 17.6628C15.3371 17.6815 15.5698 17.7565 15.7758 17.882C17.1477 18.718 18.7178 17.148 17.8818 15.776C17.7563 15.57 17.6812 15.3373 17.6626 15.0969C17.644 14.8564 17.6824 14.6149 17.7747 14.3921C17.8669 14.1692 18.0105 13.9713 18.1936 13.8144C18.3768 13.6575 18.5944 13.546 18.8288 13.489C20.3898 13.11 20.3898 10.889 18.8288 10.511C18.5943 10.4542 18.3765 10.3428 18.1932 10.1859C18.01 10.029 17.8663 9.83109 17.774 9.60818C17.6817 9.38527 17.6434 9.14372 17.6621 8.90318C17.6808 8.66265 17.7561 8.42994 17.8818 8.224C18.7178 6.852 17.1477 5.282 15.7758 6.118C15.5698 6.24368 15.3371 6.31895 15.0966 6.33767C14.856 6.35639 14.6145 6.31804 14.3916 6.22574C14.1687 6.13344 13.9707 5.9898 13.8138 5.80651C13.6569 5.62323 13.5456 5.40548 13.4888 5.171L13.4897 5.17ZM11.9998 15C12.7954 15 13.5585 14.6839 14.1211 14.1213C14.6837 13.5587 14.9998 12.7956 14.9998 12C14.9998 11.2044 14.6837 10.4413 14.1211 9.87868C13.5585 9.31607 12.7954 9 11.9998 9C11.2041 9 10.441 9.31607 9.87843 9.87868C9.31582 10.4413 8.99975 11.2044 8.99975 12C8.99975 12.7956 9.31582 13.5587 9.87843 14.1213C10.441 14.6839 11.2041 15 11.9998 15Z" fill="currentColor"/>
</svg>
