<svg width="28" height="28" viewBox="0 0 28 28" fill="none" xmlns="http://www.w3.org/2000/svg">
<rect width="28" height="28" rx="4" fill="#0E73F6"/>
<path fill-rule="evenodd" clip-rule="evenodd" d="M8.083 13H10.029C10.118 11.454 10.412 10.03 10.866 8.882C10.135 9.32992 9.50842 9.92919 9.02838 10.6395C8.54834 11.3498 8.22598 12.1547 8.083 13ZM14 6C11.8783 6 9.84344 6.84285 8.34315 8.34315C6.84285 9.84344 6 11.8783 6 14C6 16.1217 6.84285 18.1566 8.34315 19.6569C9.84344 21.1571 11.8783 22 14 22C16.1217 22 18.1566 21.1571 19.6569 19.6569C21.1571 18.1566 22 16.1217 22 14C22 11.8783 21.1571 9.84344 19.6569 8.34315C18.1566 6.84285 16.1217 6 14 6ZM14 8C13.924 8 13.768 8.032 13.535 8.262C13.297 8.496 13.038 8.885 12.798 9.444C12.409 10.351 12.125 11.586 12.032 13H15.968C15.875 11.586 15.591 10.351 15.202 9.444C14.962 8.884 14.702 8.496 14.465 8.262C14.232 8.032 14.076 8 14 8ZM17.971 13C17.882 11.454 17.588 10.03 17.134 8.882C17.865 9.32992 18.4916 9.92919 18.9716 10.6395C19.4517 11.3498 19.774 12.1547 19.917 13H17.971ZM15.968 15H12.032C12.125 16.414 12.409 17.649 12.798 18.556C13.038 19.116 13.298 19.504 13.535 19.738C13.768 19.968 13.924 20 14 20C14.076 20 14.232 19.968 14.465 19.738C14.703 19.504 14.963 19.115 15.202 18.556C15.591 17.649 15.875 16.414 15.968 15ZM17.134 19.118C17.588 17.971 17.882 16.546 17.971 15H19.917C19.774 15.8453 19.4517 16.6502 18.9716 17.3605C18.4916 18.0708 17.865 18.6701 17.134 19.118ZM10.866 19.118C10.412 17.97 10.118 16.546 10.03 15H8.083C8.22598 15.8453 8.54834 16.6502 9.02838 17.3605C9.50842 18.0708 10.135 18.6701 10.866 19.118Z" fill="white"/>
</svg>
