<svg width="28" height="28" viewBox="0 0 28 28" fill="none" xmlns="http://www.w3.org/2000/svg">
<rect width="28" height="28" rx="4" fill="#FA8D7F"/>
<path fill-rule="evenodd" clip-rule="evenodd" d="M6.50708 9.34328C6.50708 6.94455 8.45163 5 10.8504 5C13.2491 5 15.1936 6.94455 15.1936 9.34328C15.1936 11.742 13.2491 13.6866 10.8504 13.6866C8.45163 13.6866 6.50708 11.742 6.50708 9.34328Z" fill="white"/>
<path d="M18.3553 12.9778C17.6375 12.9778 16.9704 12.761 16.4157 12.3894C16.9116 11.4853 17.1936 10.4472 17.1936 9.34328C17.1936 8.32704 16.9546 7.36661 16.5298 6.51512C17.0609 6.18843 17.6861 6 18.3553 6C20.2822 6 21.8442 7.56203 21.8442 9.4889C21.8442 11.4158 20.2822 12.9778 18.3553 12.9778Z" fill="white"/>
<path d="M16.1233 15.1171C18.0484 16.312 19.397 18.3477 19.6561 20.7111H22.1778C23.0246 20.7111 23.7111 20.0246 23.7111 19.1778C23.7111 16.8582 21.8307 14.9778 19.5111 14.9778H17.2C16.8278 14.9778 16.4669 15.0262 16.1233 15.1171Z" fill="white"/>
<path fill-rule="evenodd" clip-rule="evenodd" d="M10.1429 15C6.75025 15 4 17.7503 4 21.1429C4 22.1685 4.83147 23 5.85714 23H16.1429C17.1685 23 18 22.1685 18 21.1429C18 17.7503 15.2498 15 11.8571 15H10.1429Z" fill="white"/>
</svg>

