<svg width="28" height="28" viewBox="0 0 28 28" fill="none" xmlns="http://www.w3.org/2000/svg">
<rect width="28" height="28" rx="4" fill="#119C2B"/>
<path fill-rule="evenodd" clip-rule="evenodd" d="M14 6C9.58172 6 6 9.58172 6 14C6 18.4183 9.58172 22 14 22C18.4183 22 22 18.4183 22 14C22 9.58172 18.4183 6 14 6ZM4 14C4 8.47715 8.47715 4 14 4C19.5228 4 24 8.47715 24 14C24 19.5228 19.5228 24 14 24C8.47715 24 4 19.5228 4 14Z" fill="white"/>
<path fill-rule="evenodd" clip-rule="evenodd" d="M14.2989 8.25C13.8571 8.25 13.4989 8.60817 13.4989 9.05V9.35H13.3388C11.9091 9.35 10.75 10.5091 10.75 11.9388C10.75 13.142 11.5789 14.1866 12.7506 14.46L13.4989 14.6346V17.05H13.475C12.8537 17.05 12.35 16.5463 12.35 15.925C12.35 15.4832 11.9918 15.125 11.55 15.125C11.1082 15.125 10.75 15.4832 10.75 15.925C10.75 17.43 11.97 18.65 13.475 18.65H13.4989V18.95C13.4989 19.3918 13.8571 19.75 14.2989 19.75C14.7408 19.75 15.0989 19.3918 15.0989 18.95V18.65H15.2612C16.6909 18.65 17.85 17.4909 17.85 16.0612C17.85 14.858 17.0211 13.8134 15.8494 13.54L15.0989 13.3649V10.95H15.125C15.7463 10.95 16.25 11.4537 16.25 12.075C16.25 12.5168 16.6082 12.875 17.05 12.875C17.4918 12.875 17.85 12.5168 17.85 12.075C17.85 10.57 16.63 9.35 15.125 9.35H15.0989V9.05C15.0989 8.60817 14.7408 8.25 14.2989 8.25ZM12.35 11.9388C12.35 11.3927 12.7927 10.95 13.3388 10.95H13.4989V12.9916L13.1141 12.9018C12.6666 12.7974 12.35 12.3984 12.35 11.9388ZM15.0989 17.05V15.0079L15.4859 15.0982C15.9334 15.2026 16.25 15.6016 16.25 16.0612C16.25 16.6073 15.8073 17.05 15.2612 17.05H15.0989Z" fill="white"/>
</svg>

