<svg width="16" height="12" viewBox="0 0 16 12" fill="none" xmlns="http://www.w3.org/2000/svg">
<path d="M4.33441 7.28622C3.7113 7.28622 3.14289 7.13376 2.62915 6.82884C2.11542 6.5206 1.7061 6.10961 1.40117 5.59588C1.09625 5.08215 0.943785 4.51373 0.943785 3.89062C0.943785 3.4233 1.03162 2.9858 1.20728 2.57812C1.38294 2.16714 1.62655 1.80587 1.9381 1.49432C2.24966 1.18276 2.60927 0.939157 3.01694 0.763494C3.42792 0.587831 3.86708 0.5 4.33441 0.5H4.94094V1.98153H4.33441C3.9864 1.98153 3.66822 2.06771 3.37986 2.24006C3.09151 2.41241 2.85951 2.64276 2.68384 2.93111C2.51149 3.21946 2.42532 3.5393 2.42532 3.89062C2.42532 4.24195 2.51149 4.56345 2.68384 4.85511C2.85619 5.14347 3.08654 5.37382 3.37489 5.54616C3.66325 5.71851 3.98308 5.80469 4.33441 5.80469H12.8955V7.28622H4.33441ZM9.79322 11.1293L8.77901 10.1051L12.3436 6.54545L8.77901 2.97585L9.79322 1.96165L14.377 6.54545L9.79322" fill="currentColor"/>
</svg>
