<svg width="28" height="28" viewBox="0 0 28 28" fill="none" xmlns="http://www.w3.org/2000/svg">
<rect width="28" height="28" rx="4" fill="url(#paint0_linear_4463_29700)"/>
<path d="M13.049 6.92513C13.349 6.00412 14.652 6.00412 14.951 6.92513L16.021 10.2171C16.0863 10.4176 16.2134 10.5923 16.384 10.7162C16.5547 10.8402 16.7601 10.907 16.971 10.9071H20.433C21.402 10.9071 21.804 12.1471 21.021 12.7171L18.221 14.7511C18.05 14.8752 17.9227 15.0501 17.8573 15.251C17.7919 15.4518 17.7918 15.6682 17.857 15.8691L18.927 19.1611C19.227 20.0821 18.172 20.8491 17.387 20.2791L14.587 18.2451C14.4162 18.1211 14.2105 18.0543 13.9995 18.0543C13.7884 18.0543 13.5828 18.1211 13.412 18.2451L10.612 20.2791C9.82797 20.8491 8.77397 20.0821 9.07297 19.1611L10.143 15.8691C10.2081 15.6682 10.208 15.4518 10.1426 15.251C10.0773 15.0501 9.94994 14.8752 9.77897 14.7511L6.97997 12.7181C6.19697 12.1481 6.59997 10.9081 7.56797 10.9081H11.029C11.24 10.9082 11.4457 10.8415 11.6165 10.7175C11.7873 10.5936 11.9145 10.4188 11.98 10.2181L13.05 6.92612L13.049 6.92513Z" fill="white"/>
<defs>
<linearGradient id="paint0_linear_4463_29700" x1="-4.89853e-08" y1="14" x2="27.8495" y2="11.9529" gradientUnits="userSpaceOnUse">
<stop stop-color="#1C6ED8"/>
<stop offset="1" stop-color="#0CD7E4" stop-opacity="0.99"/>
</linearGradient>
</defs>
</svg>
