<svg width="28" height="28" viewBox="0 0 28 28" fill="none" xmlns="http://www.w3.org/2000/svg">
<rect width="28" height="28" rx="4" fill="#119C2B"/>
<path d="M13 11.151C12.779 11.222 12.588 11.315 12.433 11.418C12.07 11.66 12 11.886 12 12C12 12.114 12.07 12.34 12.433 12.582C12.609 12.6964 12.7997 12.7862 13 12.849V11.151Z" fill="white"/>
<path d="M15 15.151V16.849C15.2003 16.7862 15.391 16.6964 15.567 16.582C15.93 16.34 16 16.114 16 16C16 15.886 15.931 15.661 15.567 15.418C15.412 15.315 15.22 15.222 15 15.151Z" fill="white"/>
<path fill-rule="evenodd" clip-rule="evenodd" d="M19.6569 19.6569C18.1566 21.1571 16.1217 22 14 22C11.8783 22 9.84344 21.1571 8.34315 19.6569C6.84285 18.1566 6 16.1217 6 14C6 11.8783 6.84285 9.84344 8.34315 8.34315C9.84344 6.84285 11.8783 6 14 6C16.1217 6 18.1566 6.84285 19.6569 8.34315C21.1571 9.84344 22 11.8783 22 14C22 16.1217 21.1571 18.1566 19.6569 19.6569ZM14.7071 8.29289C14.8946 8.48043 15 8.73478 15 9V9.092C15.941 9.269 16.791 9.696 17.354 10.345C17.4422 10.4439 17.5098 10.5593 17.553 10.6846C17.5962 10.8098 17.6141 10.9424 17.6056 11.0747C17.5971 11.2069 17.5624 11.3361 17.5035 11.4548C17.4447 11.5735 17.3628 11.6793 17.2627 11.7661C17.1626 11.8529 17.0462 11.9189 16.9204 11.9604C16.7945 12.0018 16.6617 12.0178 16.5296 12.0075C16.3975 11.9972 16.2688 11.9607 16.1509 11.9002C16.0331 11.8396 15.9284 11.7563 15.843 11.655C15.68 11.468 15.391 11.278 15 11.151V13.092C15.5973 13.1983 16.1672 13.4234 16.676 13.754C17.398 14.235 18 15.01 18 16C18 16.991 17.398 17.766 16.676 18.246C16.1672 18.5766 15.5973 18.8017 15 18.908V19C15 19.2652 14.8946 19.5196 14.7071 19.7071C14.5196 19.8946 14.2652 20 14 20C13.7348 20 13.4804 19.8946 13.2929 19.7071C13.1054 19.5196 13 19.2652 13 19V18.908C12.06 18.731 11.209 18.304 10.647 17.655C10.5562 17.5566 10.486 17.441 10.4407 17.3149C10.3954 17.1889 10.3759 17.0551 10.3833 16.9214C10.3907 16.7876 10.4249 16.6568 10.4839 16.5365C10.5428 16.4163 10.6253 16.3091 10.7265 16.2214C10.8276 16.1336 10.9454 16.0671 11.0728 16.0257C11.2001 15.9843 11.3345 15.9689 11.4679 15.9804C11.6013 15.992 11.7311 16.0302 11.8494 16.0928C11.9678 16.1554 12.0724 16.2412 12.157 16.345C12.32 16.532 12.609 16.722 13 16.849V14.908C12.378 14.791 11.804 14.566 11.324 14.246C10.602 13.765 10 12.99 10 12C10 11.009 10.602 10.234 11.324 9.754C11.8328 9.42344 12.4027 9.19833 13 9.092V9C13 8.73478 13.1054 8.48043 13.2929 8.29289C13.4804 8.10536 13.7348 8 14 8C14.2652 8 14.5196 8.10536 14.7071 8.29289Z" fill="white"/>
</svg>
